<svg width="56" height="57" viewBox="0 0 56 57" fill="none" xmlns="http://www.w3.org/2000/svg">
<path d="M44.6296 13.0668C41.5542 11.6331 38.2244 10.5925 34.7559 9.99132C34.7255 9.99034 34.6952 9.99605 34.6672 10.008C34.6393 10.02 34.6143 10.038 34.594 10.0607C34.1778 10.8238 33.6922 11.8181 33.3684 12.5812C29.6895 12.0262 25.9481 12.0262 22.2691 12.5812C21.9454 11.795 21.4598 10.8238 21.0204 10.0607C20.9973 10.0144 20.9279 9.99132 20.8586 9.99132C17.39 10.5925 14.0834 11.6331 10.9848 13.0668C10.9617 13.0668 10.9385 13.0899 10.9154 13.113C4.62579 22.5243 2.89152 31.6813 3.7471 40.7457C3.7471 40.792 3.77022 40.8382 3.81647 40.8613C7.97872 43.9137 11.9791 45.7635 15.9332 46.9891C16.0026 47.0122 16.072 46.9891 16.0951 46.9429C17.0201 45.6711 17.8525 44.3299 18.5693 42.9193C18.6156 42.8269 18.5693 42.7344 18.4768 42.7112C17.1588 42.2025 15.9101 41.6013 14.6846 40.9076C14.5921 40.8613 14.5921 40.7226 14.6614 40.6532C14.9158 40.4682 15.1702 40.2601 15.4245 40.0751C15.4708 40.0289 15.5401 40.0289 15.5864 40.052C23.5409 43.6824 32.1198 43.6824 39.9818 40.052C40.028 40.0289 40.0974 40.0289 40.1437 40.0751C40.398 40.2833 40.6524 40.4682 40.9067 40.6764C40.9992 40.7457 40.9992 40.8845 40.8836 40.9307C39.6812 41.6475 38.4094 42.2256 37.0914 42.7344C36.9989 42.7575 36.9757 42.8731 36.9989 42.9425C37.7388 44.353 38.5713 45.6942 39.4731 46.966C39.5425 46.9891 39.6118 47.0122 39.6812 46.9891C43.6585 45.7635 47.6588 43.9137 51.8211 40.8613C51.8673 40.8382 51.8905 40.792 51.8905 40.7457C52.9079 30.2707 50.2024 21.1831 44.7221 13.113C44.699 13.0899 44.6759 13.0668 44.6296 13.0668ZM19.7718 35.2192C17.39 35.2192 15.4014 33.0224 15.4014 30.317C15.4014 27.6115 17.3438 25.4148 19.7718 25.4148C22.2229 25.4148 24.1652 27.6346 24.1421 30.317C24.1421 33.0224 22.1997 35.2192 19.7718 35.2192ZM35.8889 35.2192C33.5072 35.2192 31.5186 33.0224 31.5186 30.317C31.5186 27.6115 33.4609 25.4148 35.8889 25.4148C38.34 25.4148 40.2824 27.6346 40.2593 30.317C40.2593 33.0224 38.34 35.2192 35.8889 35.2192Z" fill="white"/>
</svg>
