<svg width="56" height="57" viewBox="0 0 56 57" fill="none" xmlns="http://www.w3.org/2000/svg">
<path d="M30.4764 5.30664C33.0778 5.31358 34.3981 5.32745 35.5381 5.35982L35.9867 5.37601C36.5047 5.39451 37.0157 5.41763 37.6331 5.44538C40.0935 5.561 41.7723 5.94948 43.2452 6.52063C44.7714 7.10797 46.0571 7.90342 47.3427 9.18678C48.5186 10.3427 49.4284 11.741 50.0089 13.2843C50.5801 14.7573 50.9685 16.436 51.0841 18.8987C51.1119 19.5138 51.135 20.0248 51.1535 20.5451L51.1674 20.9937C51.2021 22.1314 51.216 23.4517 51.2206 26.0531L51.2229 27.7782V30.8074C51.2286 32.494 51.2108 34.1807 51.1697 35.8668L51.1558 36.3154C51.1373 36.8357 51.1142 37.3467 51.0865 37.9618C50.9708 40.4245 50.5777 42.1009 50.0089 43.5762C49.4301 45.1204 48.52 46.519 47.3427 47.6737C46.1865 48.8491 44.7883 49.7589 43.2452 50.3399C41.7723 50.911 40.0935 51.2995 37.6331 51.4151C37.0844 51.441 36.5356 51.4641 35.9867 51.4845L35.5381 51.4984C34.3981 51.5307 33.0778 51.5469 30.4764 51.5516L28.7514 51.5539H25.7245C24.0371 51.5597 22.3496 51.542 20.6627 51.5007L20.2141 51.4868C19.6652 51.466 19.1164 51.4421 18.5677 51.4151C16.1074 51.2995 14.4286 50.911 12.9533 50.3399C11.4102 49.7603 10.0125 48.8504 8.85811 47.6737C7.68122 46.5182 6.77056 45.1199 6.18964 43.5762C5.61849 42.1032 5.23001 40.4245 5.1144 37.9618C5.08863 37.4131 5.06551 36.8643 5.04502 36.3154L5.03346 35.8668C4.99085 34.1807 4.97158 32.494 4.97565 30.8074V26.0531C4.9692 24.3665 4.98616 22.6799 5.02653 20.9937L5.04271 20.5451C5.06121 20.0248 5.08433 19.5138 5.11208 18.8987C5.2277 16.436 5.61618 14.7596 6.18733 13.2843C6.768 11.7394 7.68047 10.3407 8.86042 9.18678C10.0145 8.01089 11.4113 7.101 12.9533 6.52063C14.4286 5.94948 16.105 5.561 18.5677 5.44538C19.1828 5.41763 19.6961 5.39451 20.2141 5.37601L20.6627 5.36214C22.3489 5.32105 24.0355 5.30332 25.7222 5.30895L30.4764 5.30664ZM28.0993 16.8684C25.0329 16.8684 22.0921 18.0866 19.9238 20.2548C17.7556 22.4231 16.5375 25.3639 16.5375 28.4303C16.5375 31.4966 17.7556 34.4374 19.9238 36.6057C22.0921 38.7739 25.0329 39.9921 28.0993 39.9921C31.1657 39.9921 34.1064 38.7739 36.2747 36.6057C38.443 34.4374 39.6611 31.4966 39.6611 28.4303C39.6611 25.3639 38.443 22.4231 36.2747 20.2548C34.1064 18.0866 31.1657 16.8684 28.0993 16.8684ZM28.0993 21.4932C29.0103 21.493 29.9124 21.6723 30.7541 22.0208C31.5958 22.3693 32.3606 22.8801 33.0049 23.5242C33.6491 24.1682 34.1602 24.9329 34.509 25.7745C34.8578 26.6161 35.0374 27.5181 35.0375 28.4291C35.0377 29.3401 34.8584 30.2422 34.5099 31.0839C34.1614 31.9256 33.6506 32.6904 33.0065 33.3347C32.3624 33.979 31.5978 34.4901 30.7562 34.8388C29.9146 35.1876 29.0126 35.3672 28.1016 35.3673C26.2618 35.3673 24.4973 34.6365 23.1963 33.3355C21.8954 32.0346 21.1645 30.2701 21.1645 28.4303C21.1645 26.5904 21.8954 24.8259 23.1963 23.525C24.4973 22.224 26.2618 21.4932 28.1016 21.4932M40.2415 13.3999C39.4749 13.3999 38.7397 13.7044 38.1976 14.2465C37.6556 14.7886 37.351 15.5238 37.351 16.2904C37.351 17.057 37.6556 17.7921 38.1976 18.3342C38.7397 18.8763 39.4749 19.1808 40.2415 19.1808C41.0081 19.1808 41.7433 18.8763 42.2853 18.3342C42.8274 17.7921 43.1319 17.057 43.1319 16.2904C43.1319 15.5238 42.8274 14.7886 42.2853 14.2465C41.7433 13.7044 41.0081 13.3999 40.2415 13.3999Z" fill="white"/>
</svg>
