<svg width="57" height="56" viewBox="0 0 57 56" fill="none" xmlns="http://www.w3.org/2000/svg">
<path d="M7.6864 16.5158C7.6864 15.2893 8.17365 14.113 9.04095 13.2457C9.90825 12.3784 11.0846 11.8911 12.3111 11.8911H44.6842C45.9107 11.8911 47.087 12.3784 47.9544 13.2457C48.8217 14.113 49.3089 15.2893 49.3089 16.5158V39.6394C49.3089 40.866 48.8217 42.0423 47.9544 42.9096C47.087 43.7769 45.9107 44.2642 44.6842 44.2642H12.3111C11.0846 44.2642 9.90825 43.7769 9.04095 42.9096C8.17365 42.0423 7.6864 40.866 7.6864 39.6394V16.5158Z" stroke="white" stroke-width="4.62472" stroke-linecap="round" stroke-linejoin="round"/>
<path d="M7.68637 16.5156L28.4976 30.3898L49.3089 16.5156" stroke="white" stroke-width="4.62472" stroke-linecap="round" stroke-linejoin="round"/>
</svg>
