<svg width="70" height="33" viewBox="0 0 70 33" fill="none" xmlns="http://www.w3.org/2000/svg">
<path d="M30.7325 5.049C31.4969 5.049 32.117 11.1234 32.117 18.6169L32.1141 19.6293C32.0593 26.6498 31.4622 32.1848 30.7325 32.1848C29.9941 32.1848 29.3913 26.5171 29.348 19.3784V18.3631C29.3624 10.9878 29.9768 5.049 30.7325 5.049ZM25.933 7.81796C26.68 7.81796 27.2886 13.0098 27.3175 19.511V20.4917C27.2886 26.993 26.68 32.1848 25.933 32.1848C25.1975 32.1848 24.5946 27.1228 24.5485 20.734V19.7533L24.5543 18.7726C24.6264 12.6204 25.2177 7.81796 25.933 7.81796ZM21.1335 7.81796C21.869 7.81796 22.4718 12.88 22.5179 19.2688V20.2494L22.5122 21.2301C22.4401 27.3824 21.8488 32.1848 21.1335 32.1848C20.3864 32.1848 19.7778 26.993 19.749 20.4917V19.511C19.7778 13.0098 20.3864 7.81796 21.1335 7.81796ZM16.3339 9.47933C17.0983 9.47933 17.7184 14.5615 17.7184 20.8321L17.7126 21.7983C17.655 27.616 17.0579 32.1848 16.3339 32.1848C15.5782 32.1848 14.9668 27.2324 14.9494 21.0743V20.5898C14.9668 14.4317 15.5782 9.47933 16.3339 9.47933ZM11.5344 14.4635C12.2987 14.4635 12.9189 18.4294 12.9189 23.3241V23.7798C12.8814 28.4611 12.2757 32.1848 11.5344 32.1848C10.7701 32.1848 10.1499 28.2188 10.1499 23.3241V22.8684C10.1874 18.1871 10.7931 14.4635 11.5344 14.4635ZM42.639 0.618671C50.0806 0.618671 56.2531 6.05852 57.401 13.1799C58.7262 12.7996 60.1173 12.7065 61.4814 12.9067C62.8454 13.1069 64.1511 13.5958 65.3111 14.3408C66.4712 15.0858 67.459 16.0697 68.2084 17.2269C68.9579 18.384 69.4519 19.6878 69.6573 21.0511C69.8628 22.4144 69.775 23.8058 69.3998 25.1325C69.0247 26.4591 68.3708 27.6905 67.4818 28.7443C66.5929 29.7981 65.4893 30.65 64.2448 31.2434C63.0003 31.8367 61.6436 32.1576 60.2652 32.1848H36.5473C35.9598 32.1848 35.3964 31.9514 34.981 31.536C34.5655 31.1206 34.3321 30.5571 34.3321 29.9696V3.13669C36.7894 1.49061 39.6814 0.613976 42.639 0.618671ZM6.73488 13.9097C7.49922 13.9097 8.11936 17.7545 8.11936 22.4934V22.9434C8.07898 27.4718 7.47615 31.0772 6.73488 31.0772C5.98495 31.0772 5.37059 27.3564 5.3504 22.7184V22.4934C5.3504 17.7545 5.97053 13.9097 6.73488 13.9097ZM1.93535 16.6786C2.6997 16.6786 3.31983 19.4072 3.31983 22.7703V23.1482C3.27368 26.3354 2.67086 28.862 1.93535 28.862C1.171 28.862 0.550873 26.1335 0.550873 22.7703V22.3925C0.597022 19.2053 1.19985 16.6786 1.93535 16.6786Z" fill="white"/>
</svg>
