<svg width="57" height="57" viewBox="0 0 57 57" fill="none" xmlns="http://www.w3.org/2000/svg">
<path d="M39.1391 14.1405C37.5584 12.336 36.6873 10.0185 36.688 7.61963H29.5428V36.2929C29.4877 37.8446 28.8326 39.3143 27.7155 40.3926C26.5984 41.4709 25.1064 42.0736 23.5538 42.0738C20.2702 42.0738 17.5416 39.3915 17.5416 36.0617C17.5416 32.0844 21.3802 29.1015 25.3343 30.327V23.02C17.3567 21.9563 10.3733 28.1534 10.3733 36.0617C10.3733 43.7618 16.7554 49.2421 23.5307 49.2421C30.7915 49.2421 36.688 43.3456 36.688 36.0617V21.5169C39.5854 23.5977 43.064 24.7141 46.6311 24.708V17.5628C46.6311 17.5628 42.2839 17.7709 39.1391 14.1405Z" fill="white"/>
</svg>
